<?xml version="1.0" encoding="iso-8859-1"?>
<!-- Uploaded to: SVG Repo, www.svgrepo.com, Generator: SVG Repo Mixer Tools -->
<svg fill="#000000" height="800px" width="800px" version="1.1" id="Layer_1" xmlns="http://www.w3.org/2000/svg" xmlns:xlink="http://www.w3.org/1999/xlink" 
	 viewBox="0 0 512.002 512.002" xml:space="preserve">
<g>
	<g>
		<path d="M240.938,205.492c-0.66-0.961-1.811-1.462-2.964-1.291c-1.153,0.171-2.108,0.984-2.46,2.096l-3.496,11.017l-22.603-7.173
			c-2.505-0.794-5.179,0.591-5.974,3.096l-12.391,39.051c13.054,1.53,24.079,11.464,26.405,25.051
			c0.013,0.079,0.021,0.158,0.034,0.235c0.834,5.109,0.345,10.131-1.223,14.713l11.578,3.674c1.606,0.51,3.323-0.379,3.832-1.986
			l22.131-69.747L240.938,205.492z"/>
	</g>
</g>
<g>
	<g>
		<path d="M117.436,115.997c-22.063,0-40.47,17.919-40.469,40.571c0.001,22.133,17.977,40.466,40.568,40.466
			c21.746,0,40.013-17.438,40.459-39.736c0-0.011,0-0.022,0-0.033C158.423,134.896,140.419,115.997,117.436,115.997z"/>
	</g>
</g>
<g>
	<g>
		<path d="M262.591,302.892c-8.901,0-75.847,0-85.594,0l13.605-2.331c9.992-1.712,16.705-11.198,14.993-21.19
			c-1.712-9.992-11.197-16.705-21.19-14.994l-53.214,9.114l-17.748-30.82l17.891,18.587l6.625-1.134l0.281-17.82
			c0.269-17.073-13.445-31.099-30.513-31.22c0,0-26.721-0.191-28.274-0.203c-17.092-0.121-31.004,13.738-30.957,30.821l0.262,95.753
			l-18.654-94.897c-1.618-8.234-9.61-13.601-17.839-11.978C4.033,232.2-1.33,240.187,0.288,248.42l28.605,145.524
			c1.367,6.96,7.363,12.01,14.407,12.241l-29.208,75.734c-2.013,5.22,0.587,11.083,5.806,13.096
			c5.213,2.013,11.081-0.581,13.096-5.805l14.167-36.736h68.647l7.127-20.258h-67.96l10.03-26.008h67.081l10.03-28.542l14.259-0.042
			L125.072,466.6c-4.037,11.475,1.993,24.051,13.469,28.087c2.418,0.851,4.883,1.254,7.309,1.254
			c9.084,0,17.591-5.666,20.778-14.722l41.654-118.402c5.041-14.327-5.62-29.336-20.778-29.336c-0.021,0-0.043,0-0.064,0
			l-50.555,0.148l0.102-11.677c-12.68,2.172-8.63,1.477-16.426,2.813c-11.3,1.935-22.099-5.101-25.22-15.856l-13.708-47.914
			l24.135,41.91c3.82,6.633,11.387,10.235,19.005,8.932l23.431-4.012c-0.913,1.521-1.446,3.295-1.446,5.198
			c0,5.571,4.552,10.129,10.128,10.129c11.235,0,94.478,0,105.705,0c5.594,0,10.129-4.536,10.129-10.129
			C272.72,307.427,268.185,302.892,262.591,302.892z M56.3,375.821l-2.618-13.319c4.462,6.933,11.32,11.565,18.967,13.319H56.3z"/>
	</g>
</g>
<g>
	<g>
		<circle cx="350.999" cy="56.238" r="40.179"/>
	</g>
</g>
<g>
	<g>
		<path d="M474.177,245.454c15.222-31.255,17.439-35.807,35.845-73.6c5.424-11.137-0.776-24.455-12.778-27.48l-74.45-18.779
			l26.988,0.876c-4.095-12.707-16.505-21.405-30.383-20.264l-52.255,4.296c-16.184,1.33-28.224,15.528-26.894,31.711l13.157,150.277
			l-17.195,64.196c-0.823,3.076-1.012,6.285-0.554,9.435l15.971,109.761c1.862,12.787,13.729,21.673,26.559,19.812
			c12.805-1.864,21.674-13.754,19.812-26.559l-15.277-104.985l20.286-75.736l9.12-0.75l-10.004,65.23
			c-0.499,3.253-0.307,6.573,0.563,9.746l31.343,114.318c3.422,12.482,16.316,19.82,28.79,16.4
			c12.478-3.421,19.822-16.311,16.4-28.79l-30.022-109.504l12.169-73.272l-0.164-25.919
			C466.665,254.552,471.523,250.903,474.177,245.454z M456.07,193.451l-0.744-9.055l-42.081-20.938l51.15,12.902
			C458.583,188.292,460.345,184.674,456.07,193.451z"/>
	</g>
</g>
</svg>